<svg xmlns="http://www.w3.org/2000/svg" width="24" height="24" viewBox="0 0 24 24"><g transform="translate(4 2)"><path d="M7.6,20a.766.766,0,0,1,0-1.522c.795.009,1.6-.018,2.4-.088a14.312,14.312,0,0,0,2.115-.3c1.2-.265,1.949-.643,2.185-1.144a1.407,1.407,0,0,0,0-1.214c-.236-.51-.987-.906-2.159-1.144a13.634,13.634,0,0,0-2.149-.309,22.539,22.539,0,0,0-4.064,0,14.314,14.314,0,0,0-2.124.3c-1.2.264-1.94.643-2.185,1.144a1.454,1.454,0,0,0-.13.607,1.5,1.5,0,0,0,.13.617,2.547,2.547,0,0,0,1.749,1.03.763.763,0,0,1,.582.534.771.771,0,0,1-.2.767.758.758,0,0,1-.768.177,3.868,3.868,0,0,1-2.7-1.848,2.96,2.96,0,0,1,0-2.525c.463-.995,1.546-1.636,3.216-1.98a16.056,16.056,0,0,1,2.386-.334,25.251,25.251,0,0,1,4.318,0,14.911,14.911,0,0,1,2.333.343c1.661.335,2.745.995,3.2,1.962a3.006,3.006,0,0,1-.026,2.525c-.463.968-1.547,1.628-3.235,1.971a14.886,14.886,0,0,1-2.325.335,19.573,19.573,0,0,1-2.281.1ZM8,10.717H7.99A5.365,5.365,0,0,1,5.964.407a5.3,5.3,0,0,1,5.8,1.166,5.368,5.368,0,0,1,1.148,5.843A5.305,5.305,0,0,1,8,10.717ZM5.3,2.649a3.854,3.854,0,0,0,1.229,6.26,3.788,3.788,0,0,0,4.156-.826,3.84,3.84,0,0,0,.83-4.181A3.8,3.8,0,0,0,7.99,1.531H7.984A3.769,3.769,0,0,0,5.3,2.649Z" fill="#212529"/></g></svg>